Title:
Capital

Country:
France/2012

Language:
French/English

Subtitle:
Spanish subpack (srt)

Director:
Costa-Gavras

Writers:
Karim Boukercha (screenplay), Costa-Gavras (screenplay)

Stars:
Gad Elmaleh, Gabriel Byrne, Natacha Régnier 

Synopsis:
The head of a giant European investment bank desperately clings to power when an American hedge fund company tries to buy them out. 

Imdb: 
http://www.imdb.com/title/tt1951166

Trailer: 
http://www.bandes-annonces.fr/film-2012/bande-annonce-lecapital.html


Media Info:

General
Complete name                            : Capital.2012.BRRip.XviD.AC3.HORiZON-ArtSubs.avi
Format                                   : AVI
Format/Info                              : Audio Video Interleave
Format profile                           : OpenDML
File size                                : 1.90 GiB
Duration                                 : 1h 53mn
Overall bit rate                         : 2 393 Kbps
Writing application                      : Lavf52.94.0

Video
ID                                       : 0
Format                                   : MPEG-4 Visual
Format profile                           : Simple@L3
Format settings, BVOP                    : No
Format settings, QPel                    : No
Format settings, GMC                     : No warppoints
Format settings, Matrix                  : Default (H.263)
Codec ID                                 : XVID
Codec ID/Hint                            : XviD
Duration                                 : 1h 53mn
Bit rate                                 : 2 158 Kbps
Width                                    : 1 280 pixels
Height                                   : 542 pixels
Display aspect ratio                     : 2.35:1
Frame rate                               : 24.000 fps
Color space                              : YUV
Chroma subsampling                       : 4:2:0
Bit depth                                : 8 bits
Scan type                                : Progressive
Compression mode                         : Lossy
Bits/(Pixel*Frame)                       : 0.130
Stream size                              : 1.71 GiB (90%)
Writing library                          : XviD 1.2.1 (UTC 2008-12-04)

Audio
ID                                       : 1
Format                                   : AC-3
Format/Info                              : Audio Coding 3
Mode extension                           : CM (complete main)
Format settings, Endianness              : Big
Codec ID                                 : 2000
Duration                                 : 1h 53mn
Bit rate mode                            : Constant
Bit rate                                 : 224 Kbps
Channel(s)                               : 2 channels
Channel positions                        : Front: L R
Sampling rate                            : 48.0 KHz
Bit depth                                : 16 bits
Compression mode                         : Lossy
Stream size                              : 182 MiB (9%)
Alignment                                : Aligned on interleaves
Interleave, duration                     : 32 ms (0.77 video frame)

